<svg xmlns="http://www.w3.org/2000/svg" width="430" height="430" style="width:100%;height:100%;transform:translate3d(0,0,0);content-visibility:visible" viewBox="0 0 430 430"><defs><filter id="a" width="100%" height="100%" x="0%" y="0%" filterUnits="objectBoundingBox"><feComponentTransfer in="SourceGraphic"><feFuncA tableValues="1.0 0.0" type="table"/></feComponentTransfer></filter><filter id="c" width="100%" height="100%" x="0%" y="0%" filterUnits="objectBoundingBox"><feComponentTransfer in="SourceGraphic"><feFuncA tableValues="1.0 0.0" type="table"/></feComponentTransfer></filter><filter id="e" width="100%" height="100%" x="0%" y="0%" filterUnits="objectBoundingBox"><feComponentTransfer in="SourceGraphic"><feFuncA tableValues="1.0 0.0" type="table"/></feComponentTransfer></filter><filter id="g" width="100%" height="100%" x="0%" y="0%" filterUnits="objectBoundingBox"><feComponentTransfer in="SourceGraphic"><feFuncA tableValues="1.0 0.0" type="table"/></feComponentTransfer></filter><filter id="i" width="100%" height="100%" x="0%" y="0%" filterUnits="objectBoundingBox"><feComponentTransfer in="SourceGraphic"><feFuncA tableValues="1.0 0.0" type="table"/></feComponentTransfer></filter><filter id="k" width="100%" height="100%" x="0%" y="0%" filterUnits="objectBoundingBox"><feComponentTransfer in="SourceGraphic"><feFuncA tableValues="1.0 0.0" type="table"/></feComponentTransfer></filter><filter id="m" width="100%" height="100%" x="0%" y="0%" filterUnits="objectBoundingBox"><feComponentTransfer in="SourceGraphic"><feFuncA tableValues="1.0 0.0" type="table"/></feComponentTransfer></filter><filter id="o" width="100%" height="100%" x="0%" y="0%" filterUnits="objectBoundingBox"><feComponentTransfer in="SourceGraphic"><feFuncA tableValues="1.0 0.0" type="table"/></feComponentTransfer></filter><filter id="q" width="100%" height="100%" x="0%" y="0%" filterUnits="objectBoundingBox"><feComponentTransfer in="SourceGraphic"><feFuncA tableValues="1.0 0.0" type="table"/></feComponentTransfer></filter><filter id="s" width="100%" height="100%" x="0%" y="0%" filterUnits="objectBoundingBox"><feComponentTransfer in="SourceGraphic"><feFuncA tableValues="1.0 0.0" type="table"/></feComponentTransfer></filter><filter id="u" width="100%" height="100%" x="0%" y="0%" filterUnits="objectBoundingBox"><feComponentTransfer in="SourceGraphic"><feFuncA tableValues="1.0 0.0" type="table"/></feComponentTransfer></filter><filter id="w" width="100%" height="100%" x="0%" y="0%" filterUnits="objectBoundingBox"><feComponentTransfer in="SourceGraphic"><feFuncA tableValues="1.0 0.0" type="table"/></feComponentTransfer></filter><path id="b" style="display:none"/><path id="f" fill="#FFC738" d="M299.902 78.524c10.95 13.033 17.543 29.859 17.543 48.218 0 41.437-33.581 75.018-75.018 75.018s-75.025-33.581-75.025-75.018 33.588-75.025 75.025-75.025c23.078 0 43.716 10.413 57.475 26.807" style="display:block"/><path id="h" fill="#4BB3FD" d="M220 235c-63.513 0-115 51.487-115 115v25h320v-25c0-63.513-51.487-115-115-115h-90z" style="display:block"/><path id="j" style="display:none"/><path id="l" style="display:none"/><path id="n" style="display:none"/><path id="p" style="display:none"/><path id="v" style="display:none"/><path id="d" style="display:none"/><path id="r" style="display:none"/><path id="t" style="display:none"/><path id="x" style="display:none"/><mask id="P" mask-type="alpha"><g filter="url(#a)"><path fill="#fff" d="M0 0h430v430H0z" opacity="0"/><use xmlns:ns1="http://www.w3.org/1999/xlink" ns1:href="#b"/></g></mask><mask id="O" mask-type="alpha"><g filter="url(#c)"><path fill="#fff" d="M0 0h430v430H0z" opacity="0"/><use xmlns:ns2="http://www.w3.org/1999/xlink" ns2:href="#d"/></g></mask><mask id="M" mask-type="alpha"><g filter="url(#e)"><path fill="#fff" d="M0 0h430v430H0z" opacity="0"/><use xmlns:ns3="http://www.w3.org/1999/xlink" ns3:href="#f"/></g></mask><mask id="L" mask-type="alpha"><g filter="url(#g)"><path fill="#fff" d="M0 0h430v430H0z" opacity="0"/><use xmlns:ns4="http://www.w3.org/1999/xlink" ns4:href="#h"/></g></mask><mask id="J" mask-type="alpha"><g filter="url(#i)"><path fill="#fff" d="M0 0h430v430H0z" opacity="0"/><use xmlns:ns5="http://www.w3.org/1999/xlink" ns5:href="#j"/></g></mask><mask id="I" mask-type="alpha"><g filter="url(#k)"><path fill="#fff" d="M0 0h430v430H0z" opacity="0"/><use xmlns:ns6="http://www.w3.org/1999/xlink" ns6:href="#l"/></g></mask><mask id="G" mask-type="alpha"><g filter="url(#m)"><path fill="#fff" d="M0 0h430v430H0z" opacity="0"/><use xmlns:ns7="http://www.w3.org/1999/xlink" ns7:href="#n"/></g></mask><mask id="F" mask-type="alpha"><g filter="url(#o)"><path fill="#fff" d="M0 0h430v430H0z" opacity="0"/><use xmlns:ns8="http://www.w3.org/1999/xlink" ns8:href="#p"/></g></mask><mask id="D" mask-type="alpha"><g filter="url(#q)"><path fill="#fff" d="M0 0h430v430H0z" opacity="0"/><use xmlns:ns9="http://www.w3.org/1999/xlink" ns9:href="#r"/></g></mask><mask id="C" mask-type="alpha"><g filter="url(#s)"><path fill="#fff" d="M0 0h430v430H0z" opacity="0"/><use xmlns:ns10="http://www.w3.org/1999/xlink" ns10:href="#t"/></g></mask><mask id="B" mask-type="alpha"><g filter="url(#u)"><path fill="#fff" d="M0 0h430v430H0z" opacity="0"/><use xmlns:ns11="http://www.w3.org/1999/xlink" ns11:href="#v"/></g></mask><mask id="A" mask-type="alpha"><g filter="url(#w)"><path fill="#fff" d="M0 0h430v430H0z" opacity="0"/><use xmlns:ns12="http://www.w3.org/1999/xlink" ns12:href="#x"/></g></mask><clipPath id="y"><path d="M0 0h430v430H0z"/></clipPath><clipPath id="N"><path d="M0 0h430v430H0z"/></clipPath><clipPath id="K"><path d="M0 0h430v430H0z"/></clipPath><clipPath id="H"><path d="M0 0h430v430H0z"/></clipPath><clipPath id="E"><path d="M0 0h430v430H0z"/></clipPath><clipPath id="z"><path d="M0 0h430v430H0z"/></clipPath></defs><g clip-path="url(#y)"><g clip-path="url(#z)" style="display:none"><g style="display:none"><path class="primary"/><path class="primary" style="mix-blend-mode:multiply"/></g><path class="secondary" style="display:none"/><g mask="url(#A)" style="display:none"><path class="secondary"/><path class="secondary" style="mix-blend-mode:multiply"/></g><g style="display:none"><path class="primary"/><path class="primary" style="mix-blend-mode:multiply"/></g><path class="secondary" style="display:none"/><g mask="url(#B)" style="display:none"><path class="secondary"/><path class="secondary" style="mix-blend-mode:multiply"/></g><path class="primary" style="display:none"/><g mask="url(#C)" style="display:none"><path class="primary"/><path class="primary" style="mix-blend-mode:multiply"/></g><path class="secondary" style="display:none"/><g mask="url(#D)" style="display:none"><path class="secondary"/><path class="secondary" style="mix-blend-mode:multiply"/></g></g><g clip-path="url(#E)" style="display:none"><path class="primary" style="display:none"/><g mask="url(#F)" style="display:none"><path class="primary"/><path class="primary" style="mix-blend-mode:multiply"/></g><path class="secondary" style="display:none"/><g mask="url(#G)" style="display:none"><path class="secondary"/><path class="secondary" style="mix-blend-mode:multiply"/></g></g><g clip-path="url(#H)" style="display:none"><path class="primary" style="display:none"/><g mask="url(#I)" style="display:none"><path class="primary"/><path class="primary" style="mix-blend-mode:multiply"/></g><path class="secondary" style="display:none"/><g mask="url(#J)" style="display:none"><path class="secondary"/><path class="secondary" style="mix-blend-mode:multiply"/></g></g><g clip-path="url(#K)" style="display:block"><path fill="#4BB3FD" d="M170 235c-63.513 0-115 51.487-115 115v21.125s-.224 1.556.5 2.625c.491.724 2.125 1.25 2.125 1.25H372.25s1.381-.449 2-1.125c.676-.737.75-1.875.75-1.875v-22c0-63.513-51.487-115-115-115h-90z" class="primary" style="display:block"/><g fill="#4BB3FD" mask="url(#L)" style="display:block"><path d="M170 235c-63.513 0-115 51.487-115 115v21.125s-.224 1.556.5 2.625c.491.724 2.125 1.25 2.125 1.25H372.25s1.381-.449 2-1.125c.676-.737.75-1.875.75-1.875v-22c0-63.513-51.487-115-115-115h-90z" class="primary"/><path fill-opacity=".5" d="M-45-70c-63.513 0-115 51.487-115 115v21.125s-.224 1.556.5 2.625c.491.724 2.125 1.25 2.125 1.25H157.25s1.381-.449 2-1.125c.676-.737.75-1.875.75-1.875V45c0-63.513-51.487-115-115-115h-90z" class="primary" style="mix-blend-mode:multiply" transform="translate(215 305)"/></g><path fill="#FFC738" d="M272.402 76.774c10.95 13.033 17.543 29.859 17.543 48.218 0 41.437-33.581 75.018-75.018 75.018s-75.025-33.581-75.025-75.018 33.588-75.025 75.025-75.025c23.078 0 43.716 10.413 57.475 26.807" class="secondary" style="display:block"/><g fill="#FFC738" mask="url(#M)" style="display:block"><path d="M272.402 76.774c10.95 13.033 17.543 29.859 17.543 48.218 0 41.437-33.581 75.018-75.018 75.018s-75.025-33.581-75.025-75.018 33.588-75.025 75.025-75.025c23.078 0 43.716 10.413 57.475 26.807" class="secondary"/><path fill-opacity=".5" d="M16.144-10.145a10.72 10.72 0 0 1 2.517 6.918c0 5.945-4.818 10.763-10.763 10.763S-2.866 2.718-2.866-3.227 1.953-13.991 7.898-13.991c3.311 0 6.272 1.494 8.246 3.846" class="secondary" style="mix-blend-mode:multiply" transform="matrix(6.97 0 0 6.97 159.878 147.484)"/></g></g><g clip-path="url(#N)" style="display:none"><path class="primary" style="display:none"/><g mask="url(#O)" style="display:none"><path class="primary"/><path class="primary" style="mix-blend-mode:multiply"/></g><path class="secondary" style="display:none"/><g mask="url(#P)" style="display:none"><path class="secondary"/><path class="secondary" style="mix-blend-mode:multiply"/></g></g></g></svg>